Genre                                    : Sci-Fi Action Thriller
Format                                   : MPEG-4
Format profile                           : Base Media / Version 2
Codec ID                                 : mp42
File size                                : 1.46 GiB
Duration                                 : 1h 32mn
Overall bit rate mode                    : Variable
Overall bit rate                         : 2 259 Kbps

Video
ID                                       : 1
Format                                   : AVC
Format/Info                              : Advanced Video Codec
Format profile                           : Main@L4.0
Format settings, CABAC                   : Yes
Format settings, ReFrames                : 1 frame
Codec ID                                 : avc1
Codec ID/Info                            : Advanced Video Coding
Duration                                 : 1h 32mn
Bit rate mode                            : Variable
Bit rate                                 : 1 999 Kbps
Width                                    : 1 920 pixels
Height                                   : 804 pixels
Display aspect ratio                     : 2.40:1
Frame rate mode                          : Variable
Frame rate                               : 23.976 fps
Minimum frame rate                       : 23.974 fps
Maximum frame rate                       : 90.000 fps
Color space                              : YUV
Chroma subsampling                       : 4:2:0
Bit depth                                : 8 bits
Scan type                                : Progressive
Bits/(Pixel*Frame)                       : 0.054
Stream size                              : 1.30 GiB (88%)
Writing library                          : x264 core

Audio
ID                                       : 2
Format                                   : AAC
Format/Info                              : Advanced Audio Codec
Format profile                           : LC
Codec ID                                 : 40
Duration                                 : 1h 32mn
Bit rate mode                            : Variable
Bit rate                                 : 256 Kbps
Maximum bit rate                         : 338 Kbps
Channel(s)                               : 6 channels
Channel positions                        : Front: L C R, Side: L R, LFE
Sampling rate                            : 48.0 KHz
Compression mode                         : Lossy
Stream size                              : 170 MiB (11%)
Language                                 : English
Subtitles                                : None

IMDB:  http://www.imdb.com/title/tt1564585/

Screens:  http://bayimg.com/LAmmGaaEC

          http://bayimg.com/lAMmJAaeC

          http://bayimg.com/lamMlaAeC  

Storyline

Jarrod and his pregnant girlfriend Elaine travel to Los Angeles to meet his old friend and successful entrepreneur Terry, and his wife Candice. Terry gives a party in his apartment for Jarrod and offers a job position to him in LA. Terry's assistant and lover Denise (Crystal Reed) and his friend Ray (Neil Hopkins) sleep on the couch in the living room, but in the dawn of the next morning, the group is awakened by mysterious beams of blue light. Ray stares at the light and is taken by the mysterious force. The group of friends try to escape from the alien invaders.



Enjoy.